# Blender 5.1.2
# www.blender.org
mtllib Saiyan.mtl
o rightarm
v -1.874909 4.094744 -0.363971
v -1.874909 6.833105 -0.363971
v -1.085566 4.094744 -0.363970
v -1.085566 6.833105 -0.363970
v -1.874909 4.094744 0.571677
v -1.874909 6.833105 0.571677
v -1.085566 4.094744 0.571677
v -1.085566 6.833105 0.571677
vn -0.0000 -0.0000 -1.0000
vn 1.0000 -0.0000 -0.0000
vn -0.0000 -0.0000 1.0000
vn -1.0000 -0.0000 -0.0000
vn -0.0000 -1.0000 -0.0000
vn -0.0000 1.0000 -0.0000
vt 0.375000 0.000000
vt 0.625000 0.000000
vt 0.625000 0.250000
vt 0.375000 0.250000
vt 0.625000 0.500000
vt 0.375000 0.500000
vt 0.625000 0.750000
vt 0.375000 0.750000
vt 0.625000 1.000000
vt 0.375000 1.000000
vt 0.125000 0.500000
vt 0.125000 0.750000
vt 0.875000 0.500000
vt 0.875000 0.750000
s 0
f 1/1/1 2/2/1 4/3/1 3/4/1
f 3/4/2 4/3/2 8/5/2 7/6/2
f 7/6/3 8/5/3 6/7/3 5/8/3
f 5/8/4 6/7/4 2/9/4 1/10/4
f 3/11/5 7/6/5 5/8/5 1/12/5
f 8/5/6 4/13/6 2/14/6 6/7/6
o body
v -1.106811 4.797338 -0.363970
v -0.207707 4.797338 -0.363970
v -1.106811 6.830946 -0.363970
v -1.106811 4.797338 0.571677
v -1.106811 6.830946 0.571677
v -0.207707 4.797338 0.571678
v -0.207707 6.830946 0.571678
v 0.691397 4.797338 0.571678
v 0.691397 6.830946 0.571678
v 0.691397 4.797338 -0.363970
v 0.691397 6.830946 -0.363970
v -0.207707 6.830946 -0.363970
v -1.454046 3.735849 0.649905
v -1.454046 4.990024 0.649905
v -1.454046 3.735849 -0.446877
v -1.454046 4.990024 -0.446877
v 1.050304 3.735849 0.649905
v 1.050304 4.990024 0.649905
v 1.050304 3.735849 -0.446877
v 1.050304 4.990024 -0.446877
vn -0.0000 -0.0000 -1.0000
vn -0.0000 -1.0000 -0.0000
vn -1.0000 -0.0000 -0.0000
vn -0.0000 -0.0000 1.0000
vn 1.0000 -0.0000 -0.0000
vn -0.0000 1.0000 -0.0000
vt 0.375000 0.000000
vt 0.625000 0.000000
vt 0.625000 0.125000
vt 0.375000 0.125000
vt 0.125000 0.625000
vt 0.375000 0.625000
vt 0.375000 0.750000
vt 0.125000 0.750000
vt 0.625000 0.750000
vt 0.625000 1.000000
vt 0.375000 1.000000
vt 0.625000 0.625000
vt 0.875000 0.750000
vt 0.875000 0.625000
vt 0.625000 0.250000
vt 0.375000 0.250000
vt 0.625000 0.500000
vt 0.375000 0.500000
vt 0.125000 0.500000
vt 0.875000 0.500000
s 0
f 9/15/7 11/16/7 20/17/7 10/18/7
f 10/19/8 14/20/8 12/21/8 9/22/8
f 12/21/9 13/23/9 11/24/9 9/25/9
f 14/20/10 15/26/10 13/23/10 12/21/10
f 10/19/8 18/22/8 16/21/8 14/20/8
f 20/17/11 15/26/11 14/20/11 10/18/11
f 14/20/10 16/21/10 17/23/10 15/26/10
f 16/21/11 18/25/11 19/24/11 17/23/11
f 18/15/7 10/18/7 20/17/7 19/16/7
f 15/26/12 17/23/12 19/27/12 20/28/12
f 15/26/12 20/28/12 11/27/12 13/23/12
f 21/15/9 22/16/9 24/29/9 23/30/9
f 23/30/7 24/29/7 28/31/7 27/32/7
f 27/32/11 28/31/11 26/23/11 25/21/11
f 25/21/10 26/23/10 22/24/10 21/25/10
f 23/33/8 27/32/8 25/21/8 21/22/8
f 28/31/12 24/34/12 22/27/12 26/23/12
o leftarm
v 1.490651 4.094744 -0.363970
v 0.701308 4.094744 -0.363970
v 1.490651 6.833105 -0.363970
v 1.490651 4.094744 0.571678
v 0.701308 4.094744 0.571678
v 1.490651 6.833105 0.571678
v 0.701308 6.833105 0.571678
v 0.701308 6.833105 -0.363970
vn -0.0000 -1.0000 -0.0000
vn -0.0000 -0.0000 -1.0000
vn 1.0000 -0.0000 -0.0000
vn -0.0000 -0.0000 1.0000
vn -0.0000 1.0000 -0.0000
vn -1.0000 -0.0000 -0.0000
vt 0.125000 0.500000
vt 0.125000 0.750000
vt 0.375000 0.750000
vt 0.375000 0.500000
vt 0.375000 0.000000
vt 0.375000 0.250000
vt 0.625000 0.250000
vt 0.625000 0.000000
vt 0.375000 1.000000
vt 0.625000 1.000000
vt 0.625000 0.750000
vt 0.625000 0.500000
vt 0.875000 0.750000
vt 0.875000 0.500000
s 0
f 30/35/13 29/36/13 32/37/13 33/38/13
f 29/39/14 30/40/14 36/41/14 31/42/14
f 32/37/15 29/43/15 31/44/15 34/45/15
f 33/38/16 32/37/16 34/45/16 35/46/16
f 35/46/17 34/45/17 31/47/17 36/48/17
f 30/40/18 33/38/18 35/46/18 36/41/18
o rightleg
v -1.102935 1.063906 -0.247329
v -1.102935 4.795677 -0.247329
v -0.204220 1.063906 -0.247329
v -0.204220 4.795677 -0.247329
v -1.102935 1.063906 0.455036
v -1.102935 4.795677 0.455036
v -0.204220 1.063906 0.455036
v -0.204220 4.795677 0.455036
vn -0.0000 -0.0000 -1.0000
vn 1.0000 -0.0000 -0.0000
vn -0.0000 -0.0000 1.0000
vn -1.0000 -0.0000 -0.0000
vn -0.0000 -1.0000 -0.0000
vn -0.0000 1.0000 -0.0000
vt 0.375000 0.000000
vt 0.625000 0.000000
vt 0.625000 0.250000
vt 0.375000 0.250000
vt 0.625000 0.500000
vt 0.375000 0.500000
vt 0.625000 0.750000
vt 0.375000 0.750000
vt 0.625000 1.000000
vt 0.375000 1.000000
vt 0.125000 0.500000
vt 0.125000 0.750000
vt 0.875000 0.500000
vt 0.875000 0.750000
s 0
f 37/49/19 38/50/19 40/51/19 39/52/19
f 39/52/20 40/51/20 44/53/20 43/54/20
f 43/54/21 44/53/21 42/55/21 41/56/21
f 41/56/22 42/55/22 38/57/22 37/58/22
f 39/59/23 43/54/23 41/56/23 37/60/23
f 44/53/24 40/61/24 38/62/24 42/55/24
o head
v -1.130193 6.813889 0.948568
v -1.130193 8.651271 0.948568
v -1.130193 6.813889 -0.773033
v -1.130193 8.651271 -0.773033
v 0.725678 6.813889 0.948568
v 0.725678 8.651271 0.948568
v 0.725678 6.813889 -0.773033
v 0.725678 8.651271 -0.773033
vn -1.0000 -0.0000 -0.0000
vn -0.0000 -0.0000 -1.0000
vn 1.0000 -0.0000 -0.0000
vn -0.0000 -0.0000 1.0000
vn -0.0000 -1.0000 -0.0000
vn -0.0000 1.0000 -0.0000
vt 0.375000 0.000000
vt 0.625000 0.000000
vt 0.625000 0.250000
vt 0.375000 0.250000
vt 0.625000 0.500000
vt 0.375000 0.500000
vt 0.625000 0.750000
vt 0.375000 0.750000
vt 0.625000 1.000000
vt 0.375000 1.000000
vt 0.125000 0.500000
vt 0.125000 0.750000
vt 0.875000 0.500000
vt 0.875000 0.750000
s 0
f 45/63/25 46/64/25 48/65/25 47/66/25
f 47/66/26 48/65/26 52/67/26 51/68/26
f 51/68/27 52/67/27 50/69/27 49/70/27
f 49/70/28 50/69/28 46/71/28 45/72/28
f 47/73/29 51/68/29 49/70/29 45/74/29
f 52/67/30 48/75/30 46/76/30 50/69/30
o leftleg
v 0.687521 1.063906 -0.247329
v -0.211195 1.063906 -0.247329
v 0.687521 4.795677 -0.247329
v 0.687521 1.063906 0.455036
v -0.211195 1.063906 0.455036
v 0.687521 4.795677 0.455036
v -0.211195 4.795677 0.455036
v -0.211195 4.795677 -0.247329
vn -0.0000 -1.0000 -0.0000
vn -0.0000 -0.0000 -1.0000
vn 1.0000 -0.0000 -0.0000
vn -0.0000 -0.0000 1.0000
vn -0.0000 1.0000 -0.0000
vn -1.0000 -0.0000 -0.0000
vt 0.125000 0.500000
vt 0.125000 0.750000
vt 0.375000 0.750000
vt 0.375000 0.500000
vt 0.375000 0.000000
vt 0.375000 0.250000
vt 0.625000 0.250000
vt 0.625000 0.000000
vt 0.375000 1.000000
vt 0.625000 1.000000
vt 0.625000 0.750000
vt 0.625000 0.500000
vt 0.875000 0.750000
vt 0.875000 0.500000
s 0
f 54/77/31 53/78/31 56/79/31 57/80/31
f 53/81/32 54/82/32 60/83/32 55/84/32
f 56/79/33 53/85/33 55/86/33 58/87/33
f 57/80/34 56/79/34 58/87/34 59/88/34
f 59/88/35 58/87/35 55/89/35 60/90/35
f 54/82/36 57/80/36 59/88/36 60/83/36
