# Blender 5.1.2
# www.blender.org
mtllib yardrat.mtl
o rightarm
v -1.926423 4.094744 -0.363971
v -1.926423 6.833105 -0.363971
v -1.095535 4.094744 -0.363970
v -1.095535 6.833105 -0.363970
v -1.926423 4.094744 0.571677
v -1.926423 6.833105 0.571677
v -1.095535 4.094744 0.571677
v -1.095535 6.833105 0.571677
vn -0.0000 -0.0000 -1.0000
vn 1.0000 -0.0000 -0.0000
vn -0.0000 -0.0000 1.0000
vn -1.0000 -0.0000 -0.0000
vn -0.0000 -1.0000 -0.0000
vn -0.0000 1.0000 -0.0000
vt 0.375000 0.000000
vt 0.625000 0.000000
vt 0.625000 0.250000
vt 0.375000 0.250000
vt 0.625000 0.500000
vt 0.375000 0.500000
vt 0.625000 0.750000
vt 0.375000 0.750000
vt 0.625000 1.000000
vt 0.375000 1.000000
vt 0.125000 0.500000
vt 0.125000 0.750000
vt 0.875000 0.500000
vt 0.875000 0.750000
s 0
f 1/1/1 2/2/1 4/3/1 3/4/1
f 3/4/2 4/3/2 8/5/2 7/6/2
f 7/6/3 8/5/3 6/7/3 5/8/3
f 5/8/4 6/7/4 2/9/4 1/10/4
f 3/11/5 7/6/5 5/8/5 1/12/5
f 8/5/6 4/13/6 2/14/6 6/7/6
o body
v -1.106811 3.468833 -0.363970
v -0.207707 3.468833 -0.363970
v -1.106811 6.833291 -0.363970
v -1.106811 3.468833 0.571677
v -1.106811 6.833291 0.571677
v -0.207707 3.468833 0.571678
v -0.207707 6.833291 0.571678
v 0.691397 3.468833 0.571678
v 0.691397 6.833291 0.571678
v 0.691397 3.468833 -0.363970
v 0.691397 6.833291 -0.363970
v -0.207707 6.833291 -0.363970
vn -0.0000 -0.0000 -1.0000
vn -0.0000 -1.0000 -0.0000
vn -1.0000 -0.0000 -0.0000
vn -0.0000 -0.0000 1.0000
vn 1.0000 -0.0000 -0.0000
vn -0.0000 1.0000 -0.0000
vt 0.375000 0.000000
vt 0.625000 0.000000
vt 0.625000 0.125000
vt 0.375000 0.125000
vt 0.125000 0.625000
vt 0.375000 0.625000
vt 0.375000 0.750000
vt 0.125000 0.750000
vt 0.625000 0.750000
vt 0.625000 1.000000
vt 0.375000 1.000000
vt 0.625000 0.625000
vt 0.875000 0.750000
vt 0.875000 0.625000
s 0
f 9/15/7 11/16/7 20/17/7 10/18/7
f 10/19/8 14/20/8 12/21/8 9/22/8
f 12/21/9 13/23/9 11/24/9 9/25/9
f 14/20/10 15/26/10 13/23/10 12/21/10
f 10/19/8 18/22/8 16/21/8 14/20/8
f 20/17/11 15/26/11 14/20/11 10/18/11
f 14/20/10 16/21/10 17/23/10 15/26/10
f 16/21/11 18/25/11 19/24/11 17/23/11
f 18/15/7 10/18/7 20/17/7 19/16/7
f 15/26/12 17/23/12 19/27/12 20/28/12
f 15/26/12 20/28/12 11/27/12 13/23/12
o head
v -1.198498 6.793742 -0.572261
v -0.207707 6.793742 -0.572261
v -1.198498 8.974342 -0.572261
v -1.198498 6.793742 0.779968
v -1.198498 8.974342 0.779968
v -0.207707 6.793742 0.779968
v -0.207707 8.974342 0.779968
v 0.783084 6.793742 0.779968
v 0.783084 8.974342 0.779968
v 0.783084 6.793742 -0.572261
v 0.783084 8.974342 -0.572261
v -0.207707 8.974342 -0.572261
v -1.296559 7.905682 -0.896147
v -0.207707 7.905682 -0.896146
v -1.296559 9.122059 -0.896147
v -1.296559 7.905682 1.103853
v -1.296559 9.122059 1.103853
v -0.207707 7.905682 1.103854
v -0.207707 9.122059 1.103854
v 0.881145 7.905682 1.103854
v 0.881145 9.122059 1.103854
v 0.881145 7.905682 -0.896146
v 0.881145 9.122059 -0.896146
v -0.207707 9.122059 -0.896146
v -1.326914 7.831931 0.187396
v -1.057603 7.978838 0.187396
v -1.625995 8.719691 -0.268457
v -1.383460 7.999776 0.476163
v -1.114148 8.146683 0.476163
v -1.682541 8.887537 0.020311
v -1.413229 9.034443 0.020311
v -1.356683 8.866598 -0.268457
v 0.911500 7.831931 0.187396
v 0.642188 7.978838 0.187396
v 1.210580 8.719691 -0.268457
v 0.968046 7.999776 0.476163
v 0.698734 8.146683 0.476163
v 1.267126 8.887537 0.020311
v 0.997815 9.034443 0.020311
v 0.941269 8.866598 -0.268457
vn -0.0000 -0.0000 -1.0000
vn -0.0000 -1.0000 -0.0000
vn -1.0000 -0.0000 -0.0000
vn -0.0000 -0.0000 1.0000
vn 1.0000 -0.0000 -0.0000
vn -0.0000 1.0000 -0.0000
vn 0.4099 -0.7514 0.5170
vn 0.2121 -0.3889 -0.8965
vn -0.9477 -0.3193 -0.0000
vn -0.2121 0.3889 0.8965
vn -0.4099 0.7514 -0.5170
vn 0.9477 0.3193 -0.0000
vn -0.4099 -0.7514 0.5170
vn -0.2121 -0.3889 -0.8965
vn 0.9477 -0.3193 -0.0000
vn 0.2121 0.3889 0.8965
vn 0.4099 0.7514 -0.5170
vn -0.9477 0.3193 -0.0000
vt 0.375000 0.000000
vt 0.625000 0.000000
vt 0.625000 0.125000
vt 0.375000 0.125000
vt 0.125000 0.625000
vt 0.375000 0.625000
vt 0.375000 0.750000
vt 0.125000 0.750000
vt 0.625000 0.750000
vt 0.625000 1.000000
vt 0.375000 1.000000
vt 0.625000 0.625000
vt 0.875000 0.750000
vt 0.875000 0.625000
vt 0.125000 0.500000
vt 0.375000 0.500000
vt 0.625000 0.250000
vt 0.375000 0.250000
vt 0.625000 0.500000
vt 0.875000 0.500000
s 0
f 21/29/13 23/30/13 32/31/13 22/32/13
f 22/33/14 26/34/14 24/35/14 21/36/14
f 24/35/15 25/37/15 23/38/15 21/39/15
f 26/34/16 27/40/16 25/37/16 24/35/16
f 22/33/14 30/36/14 28/35/14 26/34/14
f 32/31/17 27/40/17 26/34/17 22/32/17
f 26/34/16 28/35/16 29/37/16 27/40/16
f 28/35/17 30/39/17 31/38/17 29/37/17
f 30/29/13 22/32/13 32/31/13 31/30/13
f 27/40/18 29/37/18 31/41/18 32/42/18
f 27/40/18 32/42/18 23/41/18 25/37/18
f 33/29/13 35/30/13 44/31/13 34/32/13
f 34/33/14 38/34/14 36/35/14 33/36/14
f 36/35/15 37/37/15 35/38/15 33/39/15
f 38/34/16 39/40/16 37/37/16 36/35/16
f 34/33/14 42/36/14 40/35/14 38/34/14
f 44/31/17 39/40/17 38/34/17 34/32/17
f 38/34/16 40/35/16 41/37/16 39/40/16
f 40/35/17 42/39/17 43/38/17 41/37/17
f 42/29/13 34/32/13 44/31/13 43/30/13
f 39/40/18 41/37/18 43/41/18 44/42/18
f 39/40/18 44/42/18 35/41/18 37/37/18
f 46/43/19 49/44/19 48/35/19 45/36/19
f 45/29/20 47/30/20 52/45/20 46/46/20
f 48/35/21 50/37/21 47/38/21 45/39/21
f 49/44/22 51/47/22 50/37/22 48/35/22
f 51/47/23 52/48/23 47/41/23 50/37/23
f 46/46/24 52/45/24 51/47/24 49/44/24
f 54/43/25 53/36/25 56/35/25 57/44/25
f 53/29/26 54/46/26 60/45/26 55/30/26
f 56/35/27 53/39/27 55/38/27 58/37/27
f 57/44/28 56/35/28 58/37/28 59/47/28
f 59/47/29 58/37/29 55/41/29 60/48/29
f 54/46/30 57/44/30 59/47/30 60/45/30
o leftarm
v 1.511009 4.094744 -0.363970
v 0.680121 4.094744 -0.363970
v 1.511009 6.833105 -0.363970
v 1.511009 4.094744 0.571678
v 0.680121 4.094744 0.571678
v 1.511009 6.833105 0.571678
v 0.680121 6.833105 0.571678
v 0.680121 6.833105 -0.363970
vn -0.0000 -1.0000 -0.0000
vn -0.0000 -0.0000 -1.0000
vn 1.0000 -0.0000 -0.0000
vn -0.0000 -0.0000 1.0000
vn -0.0000 1.0000 -0.0000
vn -1.0000 -0.0000 -0.0000
vt 0.125000 0.500000
vt 0.125000 0.750000
vt 0.375000 0.750000
vt 0.375000 0.500000
vt 0.375000 0.000000
vt 0.375000 0.250000
vt 0.625000 0.250000
vt 0.625000 0.000000
vt 0.375000 1.000000
vt 0.625000 1.000000
vt 0.625000 0.750000
vt 0.625000 0.500000
vt 0.875000 0.750000
vt 0.875000 0.500000
s 0
f 62/49/31 61/50/31 64/51/31 65/52/31
f 61/53/32 62/54/32 68/55/32 63/56/32
f 64/51/33 61/57/33 63/58/33 66/59/33
f 65/52/34 64/51/34 66/59/34 67/60/34
f 67/60/35 66/59/35 63/61/35 68/62/35
f 62/54/36 65/52/36 67/60/36 68/55/36
o rightleg
v -0.917276 0.792477 -0.247329
v -0.917276 3.515639 -0.247329
v -0.204943 0.792477 -0.247329
v -0.204943 3.515639 -0.247329
v -0.917276 0.792477 0.455036
v -0.917276 3.515639 0.455036
v -0.204943 0.792477 0.455036
v -0.204943 3.515639 0.455036
vn -0.0000 -0.0000 -1.0000
vn 1.0000 -0.0000 -0.0000
vn -0.0000 -0.0000 1.0000
vn -1.0000 -0.0000 -0.0000
vn -0.0000 -1.0000 -0.0000
vn -0.0000 1.0000 -0.0000
vt 0.375000 0.000000
vt 0.625000 0.000000
vt 0.625000 0.250000
vt 0.375000 0.250000
vt 0.625000 0.500000
vt 0.375000 0.500000
vt 0.625000 0.750000
vt 0.375000 0.750000
vt 0.625000 1.000000
vt 0.375000 1.000000
vt 0.125000 0.500000
vt 0.125000 0.750000
vt 0.875000 0.500000
vt 0.875000 0.750000
s 0
f 69/63/37 70/64/37 72/65/37 71/66/37
f 71/66/38 72/65/38 76/67/38 75/68/38
f 75/68/39 76/67/39 74/69/39 73/70/39
f 73/70/40 74/69/40 70/71/40 69/72/40
f 71/73/41 75/68/41 73/70/41 69/74/41
f 76/67/42 72/75/42 70/76/42 74/69/42
o leftleg
v 0.501862 0.792477 -0.247329
v -0.210471 0.792477 -0.247329
v 0.501862 3.515639 -0.247329
v 0.501862 0.792477 0.455036
v -0.210471 0.792477 0.455036
v 0.501862 3.515639 0.455036
v -0.210471 3.515639 0.455036
v -0.210471 3.515639 -0.247329
vn -0.0000 -1.0000 -0.0000
vn -0.0000 -0.0000 -1.0000
vn 1.0000 -0.0000 -0.0000
vn -0.0000 -0.0000 1.0000
vn -0.0000 1.0000 -0.0000
vn -1.0000 -0.0000 -0.0000
vt 0.125000 0.500000
vt 0.125000 0.750000
vt 0.375000 0.750000
vt 0.375000 0.500000
vt 0.375000 0.000000
vt 0.375000 0.250000
vt 0.625000 0.250000
vt 0.625000 0.000000
vt 0.375000 1.000000
vt 0.625000 1.000000
vt 0.625000 0.750000
vt 0.625000 0.500000
vt 0.875000 0.750000
vt 0.875000 0.500000
s 0
f 78/77/43 77/78/43 80/79/43 81/80/43
f 77/81/44 78/82/44 84/83/44 79/84/44
f 80/79/45 77/85/45 79/86/45 82/87/45
f 81/80/46 80/79/46 82/87/46 83/88/46
f 83/88/47 82/87/47 79/89/47 84/90/47
f 78/82/48 81/80/48 83/88/48 84/83/48
